# xmcd
#
# Track frame offsets:
#  150
#  18002
#  33527
#  52375
#  70690
#  88465
#  111260
#  130242
#  153982
#  168267
#  193482
#  213325
#
# Disc length: 3110 seconds
#
# Revision: 2
# Processed by: cddbd v1.5.1PL2 Copyright (c) Steve Scherf et al.
# Submitted via: Collectorz.com_Music_Collector 6.9
#
DISCID=ae0c240c
DTITLE=Sweet Betty (Journey) - They Call Me Sweet Betty
DYEAR=1998
DGENRE=Blues - Jazz
TTITLE0=They call me sweet betty
TTITLE1=It's all in the game
TTITLE2=You're a two timing man
TTITLE3=Brown liquor
TTITLE4=I need my baby
TTITLE5=Your tears become my tears
TTITLE6=Bad company
TTITLE7=A change is gonna come
TTITLE8=These bills
TTITLE9=I'm not your fool
TTITLE10=I can find someone better
TTITLE11=I still love you
EXTD=
EXTT0=
EXTT1=
EXTT2=
EXTT3=
EXTT4=
EXTT5=
EXTT6=
EXTT7=
EXTT8=
EXTT9=
EXTT10=
EXTT11=
PLAYORDER=
